PathFileType	4	(X/Y/Z)	SUBJ94_3_walk_RCNL2025.trc
DataRate	CameraRate	NumFrames	NumMarkers	Units	OrigDataRate	OrigDataStartFrame	OrigNumFrames
100	100	7	25	mm	100	1	368
Frame#	Time	R_Shoulder			L_Shoulder			C7			J_Notch			R_Elbow			L_Elbow			R_Wrist			L_Wrist			R_Asis			L_Asis			Sacral			Thoracic			Sternum			R_Thigh_Lateral			R_Knee_Lateral			R_Shank_Lateral			R_Ankle_Lateral			R_Heel			R_Toe			L_Thigh_Lateral			L_Knee_Lateral			L_Shank_Lateral			L_Ankle_Lateral			L_Heel			L_Toe		
		X1	Y1	Z1	X2	Y2	Z2	X3	Y3	Z3	X4	Y4	Z4	X5	Y5	Z5	X6	Y6	Z6	X7	Y7	Z7	X8	Y8	Z8	X9	Y9	Z9	X10	Y10	Z10	X11	Y11	Z11	X12	Y12	Z12	X13	Y13	Z13	X14	Y14	Z14	X15	Y15	Z15	X16	Y16	Z16	X17	Y17	Z17	X18	Y18	Z18	X19	Y19	Z19	X20	Y20	Z20	X21	Y21	Z21	X22	Y22	Z22	X23	Y23	Z23	X24	Y24	Z24	X25	Y25	Z25
1	0.00000000	-2730.803955	1231.613403	394.459015	-2717.044922	1238.654663	10.996233	-2794.291016	1313.980225	199.415283	-2674.328613	1225.981812	195.982056	-2827.381348	963.201843	473.739899	-2722.181641	952.108887	-53.855518	-2793.606567	740.551666	496.069138	-2552.275513	794.689301	-47.837121	-2671.862793	842.960693	324.147400	-2683.140869	836.474670	97.161621	-2867.522705	900.791382	221.496857	-2862.881348	1112.722046	198.382889	-2641.551270	1034.966431	209.231689	-2653.914062	497.986145	395.099274	-2616.844238	419.201050	334.989441	-2560.742920	244.987564	373.412079	-2494.623779	48.445381	293.703278	-2533.652344	33.822479	242.567780	-2363.135742	73.449913	267.022675	-2828.281738	510.862457	26.640352	-2860.319336	417.298615	87.173805	-2920.526367	241.096771	35.702648	-2987.290039	52.430107	148.746033	-3026.710938	51.354450	199.082001	-2866.241943	26.710278	170.052628
2	0.01000000	-2718.350098	1230.533569	396.103821	-2704.830566	1238.424072	12.626340	-2782.274414	1313.543579	201.310120	-2662.015381	1225.465698	197.473907	-2815.730957	962.225037	474.829895	-2710.668457	952.051636	-53.067795	-2784.373413	739.388611	497.839233	-2539.451904	796.453278	-47.137669	-2658.483643	842.342285	324.494415	-2670.110596	835.266541	97.324745	-2854.544434	900.029846	222.298737	-2850.200684	1112.160156	199.810379	-2629.031006	1034.125488	210.206268	-2640.484863	497.546936	394.503906	-2603.851807	418.578033	334.518707	-2548.339844	243.841141	372.435730	-2483.247803	47.650532	292.685303	-2522.901367	33.282349	241.879944	-2351.485596	71.472649	264.462280	-2819.062500	510.651093	26.493633	-2851.639648	416.909576	86.740570	-2915.481201	241.523911	35.223995	-2987.169189	54.059898	147.688248	-3027.245850	54.048767	197.706863	-2865.929199	26.253767	169.998718
3	0.02000000	-2705.890381	1229.721436	397.728973	-2692.736328	1238.422852	14.246030	-2770.300781	1313.302368	203.201920	-2649.757812	1225.216064	198.975250	-2803.771240	961.436035	475.950653	-2699.458984	952.201233	-52.174789	-2774.464966	738.435547	499.555099	-2527.157837	798.113892	-46.462582	-2645.193604	842.057556	324.914124	-2657.112793	834.279541	97.627518	-2841.605713	899.522766	222.946182	-2837.558105	1111.784912	201.241196	-2616.483154	1033.609009	211.213333	-2627.036865	497.533142	394.082153	-2591.206055	418.190521	334.229095	-2536.707275	242.825699	371.657837	-2473.316895	46.852467	291.827087	-2513.552246	32.909443	241.320190	-2341.335938	68.969925	262.190247	-2808.943115	510.386597	26.347782	-2841.980469	416.485565	86.277084	-2909.672363	242.240738	34.724483	-2986.385742	56.306923	146.639069	-3026.888428	57.533989	196.384033	-2865.622070	25.770126	170.005859
4	0.03000000	-2693.424805	1229.176514	399.334229	-2680.762695	1238.650391	15.855093	-2758.370361	1313.256226	205.090485	-2637.556641	1225.232544	200.485718	-2791.502686	960.834656	477.102112	-2688.552246	952.557190	-51.176811	-2763.881470	737.692352	501.216522	-2515.392822	799.670929	-45.811893	-2631.992676	842.105225	325.406281	-2644.147949	833.513550	98.069588	-2828.707275	899.269470	223.440033	-2824.954102	1111.595947	202.675323	-2603.908691	1033.416138	212.252441	-2613.578613	497.939850	393.834198	-2578.910156	418.036774	334.119995	-2525.841064	241.941650	371.078094	-2464.816895	46.053299	291.128632	-2505.590820	32.702251	240.889343	-2332.669678	65.959229	260.205292	-2797.924072	510.068756	26.202902	-2831.342285	416.026642	85.783730	-2903.097412	243.247452	34.204861	-2984.934814	59.173199	145.600769	-3025.631348	61.810726	195.116455	-2865.316650	25.264162	170.072723
5	0.04000000	-2680.953857	1228.897461	400.919006	-2668.910156	1239.105347	17.452934	-2746.483398	1313.403809	206.975235	-2625.412354	1225.512939	202.004333	-2778.926270	960.419922	478.284180	-2677.947266	953.118225	-50.074749	-2752.623901	737.158478	502.823181	-2504.155273	801.123749	-45.185706	-2618.881836	842.481873	325.970093	-2631.219482	832.968140	98.649879	-2815.851074	899.268005	223.782745	-2812.389160	1111.592407	204.112656	-2591.309082	1033.544434	213.322266	-2600.135498	498.753662	393.760254	-2566.972168	418.111877	334.189758	-2515.730713	241.189987	370.695282	-2457.711670	45.258335	290.589447	-2498.982178	32.656487	240.589035	-2325.444580	62.485828	258.503296	-2786.005859	509.697235	26.059242	-2819.724609	415.533234	85.261574	-2895.749512	244.544296	33.667080	-2982.801270	62.663380	144.579071	-3023.457031	66.879402	193.911438	-2865.001953	24.749504	170.195190
6	0.05000000	-2668.478516	1228.881470	402.482086	-2657.179932	1239.784424	19.038334	-2734.640137	1313.743042	208.855042	-2613.325928	1226.053345	203.529068	-2766.045166	960.190125	479.496704	-2667.640869	953.881470	-48.870453	-2740.693359	736.832916	504.374115	-2493.442505	802.470978	-44.584248	-2605.863770	843.179993	326.603973	-2618.332764	832.642151	99.366013	-2803.039795	899.514343	223.979446	-2799.864746	1111.772339	205.553055	-2578.688721	1033.988647	214.420013	-2586.753418	499.948456	393.859985	-2555.406738	418.406036	334.434509	-2506.356689	240.571960	370.506409	-2451.934082	44.476852	290.207581	-2493.660889	32.763519	240.421234	-2319.583496	58.631783	257.075500	-2773.191650	509.271759	25.917250	-2807.128906	415.006470	84.712730	-2887.614990	246.131012	33.114750	-2979.957764	66.784409	143.584061	-3020.333496	72.737839	192.781769	-2864.652588	24.253731	170.364227
7	0.06000000	-2656.000000	1229.123169	404.021484	-2645.574463	1240.681885	20.609228	-2722.841064	1314.269531	210.728043	-2601.299805	1226.846313	205.056549	-2752.863770	960.141724	480.739532	-2657.628418	954.841858	-47.567120	-2728.092529	736.713684	505.867920	-2483.249268	803.710388	-44.007923	-2592.941406	844.186523	327.305054	-2605.496094	832.533508	100.213615	-2790.278809	900.001404	224.038895	-2787.383301	1112.132202	206.996277	-2566.054199	1034.740112	215.541000	-2573.504150	501.483032	394.131378	-2544.237549	418.903320	334.847351	-2497.690186	240.088516	370.505371	-2447.384521	43.721756	289.978027	-2489.529785	33.009239	240.387039	-2314.974365	54.516743	255.906586	-2759.488770	508.792786	25.777596	-2793.558350	414.448761	84.140694	-2878.672607	248.005875	32.553280	-2976.361816	71.543365	142.629929	-3016.214355	79.376976	191.745224	-2864.222656	23.822266	170.563843
